<svg data-v-423bf9ae="" xmlns="http://www.w3.org/2000/svg" viewBox="0 0 403.8169405980717 60" class="font"><!----><!----><!----><g data-v-423bf9ae="" id="75321331-876e-4f91-a96b-56999ba1b46f" fill="#ddccf5" transform="matrix(5.84225874640956,0,0,5.84225874640956,-3.9727326178987994,-14.079843841873547)"><path d="M2.74 6.54L2.74 4.46L5.63 4.46L5.63 4.46Q6.85 4.50 6.88 5.26L6.88 5.26L6.88 5.26Q6.85 6.51 5.61 6.54L5.61 6.54L2.74 6.54ZM2.74 11.07L2.74 8.57L6.11 8.57L6.11 8.57Q7.53 8.61 7.57 9.59L7.57 9.59L7.57 9.59Q7.53 11.05 6.09 11.07L6.09 11.07L2.74 11.07ZM8.86 5.44L8.86 5.44L8.86 5.44Q8.72 2.58 6.13 2.43L6.13 2.43L0.68 2.43L0.68 12.67L6.45 12.68L6.45 12.68Q9.41 12.51 9.55 9.61L9.55 9.61L9.55 9.61Q9.47 8.17 8.12 7.27L8.12 7.27L8.12 7.27Q8.81 6.81 8.86 5.44ZM13.24 12.67L11.05 12.67L15.16 2.42L17.21 2.42L21.30 12.67L19.12 12.67L18.50 11.10L13.86 11.10L13.24 12.67ZM17.75 9.05L16.24 5.15L14.68 9.05L17.75 9.05ZM30.87 10.76L30.87 12.67L22.66 12.67L22.67 11.99L27.45 4.33L22.67 4.33L22.66 2.42L30.87 2.42L30.87 3.17L26.07 10.76L30.87 10.76ZM40.95 10.76L40.95 12.67L32.74 12.67L32.75 11.99L37.53 4.33L32.75 4.33L32.74 2.42L40.95 2.42L40.95 3.17L36.16 10.76L40.95 10.76ZM43.00 12.67L43.00 2.41L45.04 2.41L45.04 12.67L43.00 12.67ZM46.88 11.72L46.88 11.72L46.88 11.72Q46.88 12.13 47.15 12.40L47.15 12.40L47.15 12.40Q47.43 12.67 47.91 12.67L47.91 12.67L47.91 12.67Q48.38 12.67 48.66 12.40L48.66 12.40L48.66 12.40Q48.93 12.13 48.93 11.72L48.93 11.72L48.93 11.72Q48.93 11.31 48.66 11.03L48.66 11.03L48.66 11.03Q48.38 10.75 47.89 10.75L47.89 10.75L47.89 10.75Q47.43 10.75 47.15 11.03L47.15 11.03L47.15 11.03Q46.88 11.31 46.88 11.72ZM55.64 12.67L55.64 12.67Q53.46 12.67 51.99 11.20L51.99 11.20L51.99 11.20Q50.52 9.73 50.52 7.53L50.52 7.53L50.52 7.53Q50.52 5.37 51.99 3.89L51.99 3.89L51.99 3.89Q53.46 2.42 55.64 2.42L55.64 2.42L55.64 2.42Q57.83 2.42 59.40 3.79L59.40 3.79L58.04 5.28L58.04 5.28Q56.99 4.46 55.64 4.46L55.64 4.46L55.64 4.46Q54.26 4.47 53.41 5.33L53.41 5.33L53.41 5.33Q52.57 6.18 52.57 7.51L52.57 7.51L52.57 7.51Q52.58 8.94 53.42 9.78L53.42 9.78L53.42 9.78Q54.27 10.62 55.65 10.62L55.65 10.62L55.65 10.62Q56.76 10.62 57.35 10.19L57.35 10.19L57.35 8.43L55.99 8.44L55.99 6.52L59.40 6.52L59.40 11.31L59.40 11.31Q57.84 12.67 55.64 12.67L55.64 12.67ZM66.04 12.67L66.04 12.67Q63.86 12.67 62.39 11.20L62.39 11.20L62.39 11.20Q60.92 9.73 60.92 7.53L60.92 7.53L60.92 7.53Q60.92 5.37 62.39 3.89L62.39 3.89L62.39 3.89Q63.86 2.42 66.04 2.42L66.04 2.42L66.04 2.42Q68.23 2.42 69.80 3.79L69.80 3.79L68.43 5.28L68.43 5.28Q67.39 4.46 66.04 4.46L66.04 4.46L66.04 4.46Q64.65 4.47 63.81 5.33L63.81 5.33L63.81 5.33Q62.97 6.18 62.97 7.51L62.97 7.51L62.97 7.51Q62.97 8.94 63.82 9.78L63.82 9.78L63.82 9.78Q64.67 10.62 66.05 10.62L66.05 10.62L66.05 10.62Q67.16 10.62 67.75 10.19L67.75 10.19L67.75 8.43L66.38 8.44L66.38 6.52L69.80 6.52L69.80 11.31L69.80 11.31Q68.24 12.67 66.04 12.67L66.04 12.67Z"></path></g><!----><!----></svg>